<svg width="16" height="16" viewBox="0 0 16 16" fill="none" xmlns="http://www.w3.org/2000/svg">
<path d="M14.222 0H1.778C1.30685 0.00131938 0.855376 0.189067 0.522222 0.522222C0.189067 0.855376 0.00131938 1.30685 0 1.778V14.222C0.00131938 14.6931 0.189067 15.1446 0.522222 15.4778C0.855376 15.8109 1.30685 15.9987 1.778 16H14.222C14.6931 15.9987 15.1446 15.8109 15.4778 15.4778C15.8109 15.1446 15.9987 14.6931 16 14.222V1.778C15.9987 1.30685 15.8109 0.855376 15.4778 0.522222C15.1446 0.189067 14.6931 0.00131938 14.222 0Z" fill="#29BC69"/>
<path d="M11.982 5.661L11.33 4.99C11.3171 4.97634 11.3016 4.9654 11.2845 4.95784C11.2673 4.95028 11.2488 4.94626 11.23 4.946C11.2112 4.94596 11.1926 4.94985 11.1753 4.95743C11.1581 4.96501 11.1427 4.9761 11.13 4.99L6.601 9.54L4.956 7.9C4.94263 7.88583 4.92651 7.87455 4.90863 7.86684C4.89074 7.85913 4.87147 7.85515 4.852 7.85515C4.83252 7.85515 4.81325 7.85913 4.79537 7.86684C4.77748 7.87455 4.76136 7.88583 4.748 7.9L4.088 8.56C4.074 8.57377 4.06288 8.59019 4.05529 8.60831C4.0477 8.62642 4.04379 8.64586 4.04379 8.6655C4.04379 8.68514 4.0477 8.70458 4.05529 8.72269C4.06288 8.7408 4.074 8.75723 4.088 8.771L6.163 10.846C6.2756 10.9689 6.43078 11.0444 6.597 11.057C6.7595 11.0434 6.9119 10.9725 7.027 10.857L11.981 5.877C12.0086 5.84785 12.024 5.80931 12.0242 5.7692C12.0244 5.72908 12.0093 5.6904 11.982 5.661Z" fill="white"/>
</svg>
