<svg width="16" height="16" viewBox="0 0 16 16" fill="none" xmlns="http://www.w3.org/2000/svg">
<path d="M0.875775 0.875775C1.11535 0.636198 1.43996 0.501119 1.77876 0.5H14.2212C14.56 0.501119 14.8846 0.636198 15.1242 0.875775C15.3638 1.11536 15.4989 1.43997 15.5 1.77877V14.2212C15.4989 14.56 15.3638 14.8846 15.1242 15.1242C14.8846 15.3638 14.56 15.4989 14.2212 15.5H1.77877C1.43997 15.4989 1.11536 15.3638 0.875775 15.1242C0.636198 14.8846 0.501119 14.56 0.5 14.2212V1.77876C0.501119 1.43996 0.636198 1.11535 0.875775 0.875775Z" fill="white" stroke="#C0C5D2"/>
<path d="M11.982 5.6608L11.33 4.9898C11.3172 4.97614 11.3017 4.9652 11.2845 4.95764C11.2673 4.95009 11.2488 4.94606 11.23 4.9458C11.2112 4.94576 11.1926 4.94966 11.1754 4.95723C11.1582 4.96481 11.1427 4.9759 11.13 4.9898L6.60103 9.5398L4.95603 7.8998C4.94266 7.88564 4.92654 7.87435 4.90866 7.86664C4.89077 7.85893 4.8715 7.85495 4.85203 7.85495C4.83255 7.85495 4.81328 7.85893 4.7954 7.86664C4.77751 7.87435 4.76139 7.88564 4.74803 7.8998L4.08803 8.5598C4.07403 8.57357 4.06291 8.59 4.05532 8.60811C4.04773 8.62622 4.04382 8.64566 4.04382 8.6653C4.04382 8.68494 4.04773 8.70438 4.05532 8.72249C4.06291 8.74061 4.07403 8.75703 4.08803 8.7708L6.16303 10.8458C6.27563 10.9687 6.43081 11.0442 6.59703 11.0568C6.75953 11.0432 6.91193 10.9723 7.02703 10.8568L11.981 5.8768C12.0086 5.84765 12.024 5.80911 12.0242 5.769C12.0244 5.72889 12.0093 5.6902 11.982 5.6608Z" fill="#C0C5D2"/>
</svg>
