<svg width="20" height="20" viewBox="0 0 20 20" fill="none" xmlns="http://www.w3.org/2000/svg">
<path d="M9.99964 15.0479C10.6818 15.0479 11.3049 14.9736 11.8731 14.8453L10.6061 13.5782C10.4092 13.5934 10.2095 13.6056 9.99964 13.6056C6.14088 13.6056 4.64598 10.8322 4.28397 10C4.5558 9.39339 4.92293 8.83418 5.37144 8.34357L4.3633 7.33543C3.2542 8.53755 2.83378 9.74832 2.82585 9.77212C2.77611 9.92022 2.77611 10.0805 2.82585 10.2286C2.84099 10.2762 4.49526 15.0479 9.99964 15.0479ZM9.99964 4.9521C8.67493 4.9521 7.58674 5.23766 6.67956 5.65952L4.01932 3L2.99964 4.01968L15.98 17L16.9996 15.9803L14.6062 13.5869C16.4912 12.18 17.1641 10.2589 17.1742 10.2286C17.2239 10.0805 17.2239 9.92022 17.1742 9.77212C17.1583 9.72381 15.504 4.9521 9.99964 4.9521ZM13.5851 12.5658L11.9409 10.9216C12.0779 10.6404 12.163 10.331 12.163 10C12.163 8.81663 11.183 7.83661 9.99964 7.83661C9.66864 7.83661 9.35928 7.92171 9.07876 8.05944L7.77496 6.75564C8.49069 6.51003 9.24297 6.38786 9.99964 6.39435C13.8584 6.39435 15.3533 9.16782 15.7153 10C15.4975 10.499 14.8745 11.6889 13.5851 12.5658Z" fill="#C0C5D2"/>
</svg>
