<svg width="20" height="20" viewBox="0 0 20 20" fill="none" xmlns="http://www.w3.org/2000/svg">
<path d="M10.0003 7.84863C9.43084 7.85239 8.88581 8.08026 8.48316 8.48291C8.08051 8.88556 7.85264 9.43059 7.84888 10C7.84888 11.1775 8.82274 12.1514 10.0003 12.1514C11.1771 12.1514 12.1516 11.1775 12.1516 10C12.1516 8.82321 11.1771 7.84863 10.0003 7.84863Z" fill="#C0C5D2"/>
<path d="M10 4.98022C4.5262 4.98022 2.88111 9.72546 2.86605 9.7735L2.79004 10.0001L2.86534 10.2267C2.88111 10.2748 4.5262 15.02 10 15.02C15.4739 15.02 17.119 10.2748 17.134 10.2267L17.21 10.0001L17.1347 9.7735C17.119 9.72546 15.4739 4.98022 10 4.98022ZM10 13.5858C6.16269 13.5858 4.67608 10.8277 4.31609 10.0001C4.67752 9.16968 6.16484 6.41448 10 6.41448C13.8374 6.41448 15.324 9.17255 15.684 10.0001C15.3226 10.8306 13.8352 13.5858 10 13.5858Z" fill="#C0C5D2"/>
</svg>
