<svg width="14" height="15" viewBox="0 0 14 15" fill="none" xmlns="http://www.w3.org/2000/svg">
<g clip-path="url(#clip0_56_1914)">
<path d="M13.6728 7.63102C13.6728 7.05744 13.6262 6.63889 13.5255 6.20483H6.97586V8.79366H10.8204C10.7429 9.43702 10.3243 10.4059 9.39417 11.057L9.38114 11.1436L11.452 12.7479L11.5955 12.7622C12.9131 11.5453 13.6728 9.7548 13.6728 7.63102Z" fill="#4285F4"/>
<path d="M6.97592 14.452C8.8594 14.452 10.4406 13.8319 11.5955 12.7622L9.39423 11.057C8.80516 11.4678 8.01454 11.7546 6.97592 11.7546C5.13118 11.7546 3.56548 10.5377 3.00735 8.85571L2.92554 8.86266L0.772209 10.5291L0.744049 10.6074C1.89119 12.8862 4.24752 14.452 6.97592 14.452Z" fill="#34A853"/>
<path d="M3.00738 8.85563C2.86011 8.42158 2.77489 7.95648 2.77489 7.47594C2.77489 6.99534 2.86011 6.5303 2.99963 6.09624L2.99573 6.0038L0.81542 4.31055L0.744084 4.34448C0.27129 5.29012 0 6.35204 0 7.47594C0 8.59984 0.27129 9.6617 0.744084 10.6073L3.00738 8.85563Z" fill="#FBBC05"/>
<path d="M6.97592 3.19735C8.28583 3.19735 9.16943 3.76318 9.67327 4.23602L11.642 2.31375C10.4329 1.18985 8.8594 0.5 6.97592 0.5C4.24752 0.5 1.89119 2.0657 0.744049 4.3445L2.9996 6.09626C3.56548 4.41428 5.13118 3.19735 6.97592 3.19735Z" fill="#EB4335"/>
</g>
<defs>
<clipPath id="clip0_56_1914">
<rect width="14" height="14" fill="white" transform="translate(0 0.5)"/>
</clipPath>
</defs>
</svg>
