<svg width="14" height="15" viewBox="0 0 14 15" fill="none" xmlns="http://www.w3.org/2000/svg">
<g clip-path="url(#clip0_56_1917)">
<path d="M9.00762 2.52374L8.99137 11.9079L2.14218 10.9573C2.30062 10.7988 2.49967 10.7582 2.72311 10.6688C2.9181 10.5916 3.07247 10.5307 3.2634 10.4576C3.63714 10.3113 4.02307 10.1245 4.3765 10.027V3.62871L9.00762 2.52374ZM2 10.876C2 10.876 2.06094 10.9451 2.11781 10.9857C2.18281 11.0263 2.20312 11.0304 2.27624 11.0629C2.38593 11.1076 2.49967 11.1441 2.61748 11.1847C2.8531 11.266 3.05216 11.3472 3.29184 11.4366L7.35016 12.9356C9.1498 13.5694 8.63388 13.675 10.1329 13.2241L12.286 12.5944C12.6719 12.4807 12.8425 12.5091 12.8831 12.3263V1.67064C12.806 1.50814 12.8425 1.56095 12.6028 1.49189L11.5222 1.17909C11.0469 1.04503 10.5757 0.902844 10.0882 0.760661C9.56823 0.60629 9.14574 0.378796 8.66232 0.577853L2 3.07216V10.876Z" fill="#EB3B00"/>
</g>
<defs>
<clipPath id="clip0_56_1917">
<rect width="14" height="14" fill="white" transform="translate(0 0.5)"/>
</clipPath>
</defs>
</svg>
