<?xml version="1.0" encoding="utf-8"?>
<!-- Generator: Adobe Illustrator 24.0.1, SVG Export Plug-In . SVG Version: 6.00 Build 0)  -->
<svg version="1.1" id="Layer_1" xmlns="http://www.w3.org/2000/svg" xmlns:xlink="http://www.w3.org/1999/xlink" x="0px" y="0px"
	 viewBox="0 0 800 191.7" style="enable-background:new 0 0 800 191.7;" xml:space="preserve">
<style type="text/css">
	.st0{fill:#53C7E6;}
	.st1{fill:#422FF0;}
</style>
<g>
	<path class="st0" d="M162.7,56.9l27.9-30.3h-48l-27.4,30.5l3.7,3C132,70.8,151.2,69.4,162.7,56.9z"/>
	<polygon class="st1" points="26.9,26.7 144.2,162.8 187.2,162.8 72,26.7 	"/>
	<path class="st0" d="M54.4,126.3l-32.8,36.5h45.1l34.7-37.6l-2.3-2C85.8,112,66,113.4,54.4,126.3z"/>
	<polygon class="st1" points="247.5,138 247.5,105.8 313.5,105.8 313.5,81.6 247.5,81.6 247.5,51.9 315,51.9 315,26.9 217.1,26.9 
		217.1,162.8 315,162.8 315,138 	"/>
	<path class="st1" d="M421.3,92.3c13.6-4.2,22.2-15.8,22.2-25.8v-3.6c0-22-19.2-36-48.9-36h-50.3v135.8h54.8c30,0,49.3-12,49.3-34.2
		v-6.2C448.5,107.6,438.3,97.4,421.3,92.3 M373.6,50.3h16.6c14.4,0,23.2,3.4,23.2,14.4v3c0,9.6-7.8,14.6-19.4,14.6h-20.4V50.3z
		 M417.9,125.2c0,11.4-9.8,14.4-23.2,14.4h-21.2v-34.8H395c12.2,0,23,5,23,15V125.2z"/>
	<path class="st1" d="M539.9,24.5c-38.9,0-70.4,31.5-70.4,70.4s31.5,70.4,70.4,70.4s70.4-31.5,70.4-70.4S578.8,24.5,539.9,24.5z
		 M539.9,137.6c-23.6,0-42.8-19.2-42.8-42.8c0-23.6,19.2-42.8,42.8-42.8s42.8,19.2,42.8,42.8C582.7,118.5,563.5,137.6,539.9,137.6z"
		/>
	<circle class="st1" cx="638" cy="148.2" r="14.6"/>
	<g>
		<path class="st1" d="M695.1,162.3c-5,0-9.5-0.9-13.5-2.7c-4-1.8-7.1-4.5-9.4-8c-2.3-3.5-3.5-7.9-3.5-13c0-4.4,0.8-8.1,2.5-11
			c1.6-2.9,3.9-5.2,6.7-7s6-3.1,9.6-4c3.6-0.9,7.3-1.6,11.1-2c4.6-0.5,8.4-0.9,11.2-1.3c2.9-0.4,5-1,6.3-1.8c1.3-0.8,2-2.1,2-3.9
			v-0.3c0-3.9-1.1-6.9-3.4-9c-2.3-2.1-5.6-3.2-9.9-3.2c-4.5,0-8.1,1-10.8,3c-2.7,2-4.4,4.3-5.4,7l-17.3-2.5c1.4-4.8,3.6-8.8,6.8-12
			c3.1-3.2,7-5.7,11.5-7.3c4.5-1.6,9.6-2.4,15.1-2.4c3.8,0,7.6,0.4,11.3,1.3c3.8,0.9,7.2,2.4,10.3,4.4c3.1,2,5.6,4.8,7.5,8.3
			c1.9,3.5,2.8,7.8,2.8,13.1v52.7h-17.9v-10.8h-0.6c-1.1,2.2-2.7,4.2-4.7,6.1c-2,1.9-4.6,3.4-7.6,4.6
			C702.7,161.7,699.2,162.3,695.1,162.3z M699.9,148.7c3.7,0,7-0.7,9.7-2.2c2.7-1.5,4.8-3.5,6.3-5.9c1.5-2.5,2.2-5.1,2.2-8.1v-9.3
			c-0.6,0.5-1.6,0.9-2.9,1.3c-1.4,0.4-2.9,0.8-4.6,1.1c-1.7,0.3-3.4,0.6-5.1,0.8c-1.7,0.2-3.1,0.4-4.4,0.6c-2.8,0.4-5.3,1-7.4,1.8
			c-2.2,0.9-3.9,2-5.2,3.6c-1.3,1.5-1.9,3.5-1.9,5.9c0,3.4,1.2,6,3.7,7.7C692.8,147.8,696,148.7,699.9,148.7z"/>
		<path class="st1" d="M764.7,70.7c-2.9,0-5.5-1-7.6-2.9c-2.1-2-3.2-4.3-3.2-7.1c0-2.8,1.1-5.2,3.2-7.2c2.1-2,4.7-2.9,7.6-2.9
			c3,0,5.5,1,7.6,2.9c2.1,2,3.2,4.4,3.2,7.2c0,2.8-1.1,5.1-3.2,7.1C770.2,69.8,767.7,70.7,764.7,70.7z M755.4,160.7V81.9H774v78.8
			H755.4z"/>
	</g>
</g>
</svg>
